<?xml version="1.0" encoding="UTF-8" standalone="no"?>
<svg
   xmlns:dc="http://purl.org/dc/elements/1.1/"
   xmlns:cc="http://creativecommons.org/ns#"
   xmlns:rdf="http://www.w3.org/1999/02/22-rdf-syntax-ns#"
   xmlns:svg="http://www.w3.org/2000/svg"
   xmlns="http://www.w3.org/2000/svg"
   xmlns:sodipodi="http://sodipodi.sourceforge.net/DTD/sodipodi-0.dtd"
   xmlns:inkscape="http://www.inkscape.org/namespaces/inkscape"
   width="24"
   height="24"
   viewBox="0 0 24 24"
   version="1.1"
   id="svg6"
   sodipodi:docname="dash-placeholder.svg"
   fill="#FFFFFF"
   inkscape:version="0.92.4 (5da689c313, 2019-01-14)">
  <metadata
     id="metadata12">
    <rdf:RDF>
      <cc:Work
         rdf:about="">
        <dc:format>image/svg+xml</dc:format>
        <dc:type
           rdf:resource="http://purl.org/dc/dcmitype/StillImage" />
        <dc:title />
      </cc:Work>
    </rdf:RDF>
  </metadata>
  <defs
     id="defs10" />
  <sodipodi:namedview
     pagecolor="#ffffff"
     bordercolor="#666666"
     borderopacity="1"
     objecttolerance="10"
     gridtolerance="10"
     guidetolerance="10"
     inkscape:pageopacity="0"
     inkscape:pageshadow="2"
     inkscape:window-width="1920"
     inkscape:window-height="1002"
     id="namedview8"
     showgrid="true"
     inkscape:pagecheckerboard="true"
     inkscape:zoom="29.875"
     inkscape:cx="5.8075314"
     inkscape:cy="11.76569"
     inkscape:window-x="0"
     inkscape:window-y="0"
     inkscape:window-maximized="1"
     inkscape:current-layer="svg6" />
  <circle
     cx="60.663147"
     cy="13.04143"
     r="12"
     id="circle2"
     style="opacity:0.3" />
  <circle
     cx="60.473797"
     cy="12.662727"
     r="4"
     id="circle4" />
  <g
     id="g820"
     transform="matrix(0,0.01122435,-0.01122435,0,17.612385,12.887613)"
     style="fill:#ffffff;fill-opacity:1">
    <path
       id="path818"
       d="m 132.4,622.5 h 439.3 c 0,0 -133.1,133.1 -158.3,158.4 -47.9,47.9 -47.9,125.4 0,173.2 47.9,47.9 125.4,47.9 173.2,0 L 954.1,586.6 c 47.9,-47.9 47.9,-125.4 0,-173.2 L 586.6,45.9 C 538.8,-1.9 461.2,-2 413.4,45.9 c -47.8,47.9 -47.9,125.4 0,173.2 25.3,25.3 158.3,158.4 158.3,158.4 H 132.5 C 64.8,377.5 10,432.4 10,500 c 0,67.7 54.8,122.5 122.4,122.5 z"
       inkscape:connector-curvature="0"
       style="fill:#ffffff;fill-opacity:1" />
  </g>
</svg>
